<svg width="131" height="35" viewBox="0 0 131 35" fill="none" xmlns="http://www.w3.org/2000/svg">
<path d="M0.5 34V0.999998H11.74C13.9933 0.999998 15.9467 1.4 17.6 2.2C19.2667 2.98667 20.5533 4.12667 21.46 5.62C22.38 7.1 22.84 8.88667 22.84 10.98C22.84 12.6333 22.5467 14.1267 21.96 15.46C21.3733 16.78 20.5333 17.8933 19.44 18.8C18.3467 19.7067 17.02 20.38 15.46 20.82L26.26 34H18.04L8.52 21.56H6.98V34H0.5ZM6.98 16.16H9.74C11.0867 16.16 12.2267 15.9667 13.16 15.58C14.0933 15.1933 14.8067 14.6267 15.3 13.88C15.8067 13.12 16.06 12.2133 16.06 11.16C16.06 9.56 15.5067 8.33333 14.4 7.48C13.3067 6.61333 11.7533 6.18 9.74 6.18H6.98V16.16ZM42.6953 34.64C38.562 34.64 35.4353 33.6067 33.3153 31.54C31.1953 29.46 30.1353 26.38 30.1353 22.3V0.999998H36.6153V20.44C36.6153 23.2267 37.0886 25.2333 38.0353 26.46C38.9953 27.6733 40.5486 28.28 42.6953 28.28C44.842 28.28 46.3886 27.6733 47.3353 26.46C48.2953 25.2333 48.7753 23.2267 48.7753 20.44V0.999998H55.2553V22.3C55.2553 26.38 54.1953 29.46 52.0753 31.54C49.9686 33.6067 46.842 34.64 42.6953 34.64ZM63.7031 34V0.999998H70.1831L84.4031 23.2V0.999998H90.8831V34H84.4031L70.1831 11.8V34H63.7031ZM114.115 34.64C111.808 34.64 109.648 34.2 107.635 33.32C105.622 32.44 103.855 31.22 102.335 29.66C100.815 28.0867 99.6217 26.2667 98.755 24.2C97.9017 22.12 97.475 19.8933 97.475 17.52C97.475 15.1467 97.9017 12.9267 98.755 10.86C99.6217 8.78 100.815 6.96 102.335 5.4C103.855 3.82666 105.622 2.6 107.635 1.72C109.648 0.839999 111.808 0.399999 114.115 0.399999C116.422 0.399999 118.582 0.839999 120.595 1.72C122.608 2.6 124.375 3.82666 125.895 5.4C127.415 6.96 128.602 8.78 129.455 10.86C130.322 12.9267 130.755 15.1467 130.755 17.52C130.755 19.8933 130.322 22.12 129.455 24.2C128.602 26.2667 127.415 28.0867 125.895 29.66C124.375 31.22 122.608 32.44 120.595 33.32C118.582 34.2 116.422 34.64 114.115 34.64ZM114.095 28.4C115.508 28.4 116.802 28.1333 117.975 27.6C119.148 27.0667 120.168 26.3133 121.035 25.34C121.902 24.3667 122.575 23.22 123.055 21.9C123.535 20.5667 123.775 19.1067 123.775 17.52C123.775 15.9333 123.535 14.48 123.055 13.16C122.575 11.8267 121.902 10.6733 121.035 9.7C120.168 8.72667 119.148 7.97333 117.975 7.44C116.802 6.90667 115.508 6.64 114.095 6.64C112.708 6.64 111.422 6.90667 110.235 7.44C109.062 7.97333 108.042 8.72667 107.175 9.7C106.308 10.6733 105.635 11.8267 105.155 13.16C104.688 14.48 104.455 15.9333 104.455 17.52C104.455 19.1067 104.688 20.5667 105.155 21.9C105.635 23.22 106.308 24.3667 107.175 25.34C108.042 26.3133 109.062 27.0667 110.235 27.6C111.422 28.1333 112.708 28.4 114.095 28.4Z" fill="#212529"/>
</svg>
